<svg width="24" height="25" viewBox="0 0 24 25" fill="none" xmlns="http://www.w3.org/2000/svg">
<path fill-rule="evenodd" clip-rule="evenodd" d="M17.5 15.73C17.0478 15.73 16.4089 15.7925 15.7438 15.8836C15.4331 15.9262 15.1962 16.1631 15.1536 16.4738C15.0625 17.1389 15 17.7778 15 18.23C15 18.6822 15.0625 19.3211 15.1536 19.9862C15.1962 20.2969 15.4331 20.5339 15.7438 20.5764C16.4089 20.6675 17.0478 20.73 17.5 20.73C17.9522 20.73 18.5911 20.6675 19.2562 20.5764C19.5669 20.5339 19.8038 20.2969 19.8464 19.9862C19.9375 19.3211 20 18.6822 20 18.23C20 17.7778 19.9375 17.1389 19.8464 16.4738C19.8038 16.1631 19.5669 15.9262 19.2562 15.8836C18.5911 15.7925 17.9522 15.73 17.5 15.73ZM15.4724 13.9021C14.2725 14.0664 13.3364 15.0025 13.1721 16.2024C13.0778 16.8907 13 17.6382 13 18.23C13 18.8218 13.0778 19.5694 13.1721 20.2576C13.3364 21.4575 14.2725 22.3936 15.4724 22.5579C16.1606 22.6522 16.9082 22.73 17.5 22.73C18.0918 22.73 18.8394 22.6522 19.5276 22.5579C20.7275 22.3936 21.6636 21.4575 21.8279 20.2576C21.9222 19.5694 22 18.8218 22 18.23C22 17.6382 21.9222 16.8907 21.8279 16.2024C21.6636 15.0025 20.7275 14.0664 19.5276 13.9021C18.8394 13.8078 18.0918 13.73 17.5 13.73C16.9082 13.73 16.1606 13.8078 15.4724 13.9021Z" fill="currentColor"/>
<path fill-rule="evenodd" clip-rule="evenodd" d="M6.5 15.73C6.04782 15.73 5.40893 15.7925 4.74381 15.8836C4.43308 15.9262 4.19615 16.1631 4.15359 16.4738C4.0625 17.1389 4 17.7778 4 18.23C4 18.6822 4.0625 19.3211 4.15359 19.9862C4.19615 20.2969 4.43308 20.5339 4.74381 20.5764C5.40893 20.6675 6.04782 20.73 6.5 20.73C6.95218 20.73 7.59107 20.6675 8.25619 20.5764C8.56692 20.5339 8.80385 20.2969 8.84641 19.9862C8.9375 19.3211 9 18.6822 9 18.23C9 17.7778 8.9375 17.1389 8.84641 16.4738C8.80385 16.1631 8.56692 15.9262 8.25619 15.8836C7.59107 15.7925 6.95218 15.73 6.5 15.73ZM4.47244 13.9021C3.27253 14.0664 2.33642 15.0025 2.17209 16.2024C2.07784 16.8907 2 17.6382 2 18.23C2 18.8218 2.07784 19.5694 2.17209 20.2576C2.33642 21.4575 3.27253 22.3936 4.47244 22.5579C5.16065 22.6522 5.90816 22.73 6.5 22.73C7.09184 22.73 7.83935 22.6522 8.52756 22.5579C9.72747 22.3936 10.6636 21.4575 10.8279 20.2576C10.9222 19.5694 11 18.8218 11 18.23C11 17.6382 10.9222 16.8907 10.8279 16.2024C10.6636 15.0025 9.72747 14.0664 8.52756 13.9021C7.83935 13.8078 7.09184 13.73 6.5 13.73C5.90816 13.73 5.16065 13.8078 4.47244 13.9021Z" fill="currentColor"/>
<path fill-rule="evenodd" clip-rule="evenodd" d="M17.5 4.73001C17.0478 4.73001 16.4089 4.79252 15.7438 4.88361C15.4331 4.92616 15.1962 5.16309 15.1536 5.47382C15.0625 6.13894 15 6.77783 15 7.23001C15 7.68219 15.0625 8.32109 15.1536 8.9862C15.1962 9.29693 15.4331 9.53386 15.7438 9.57642C16.4089 9.66751 17.0478 9.73001 17.5 9.73001C17.9522 9.73001 18.5911 9.66751 19.2562 9.57642C19.5669 9.53386 19.8038 9.29693 19.8464 8.9862C19.9375 8.32109 20 7.68219 20 7.23001C20 6.77783 19.9375 6.13894 19.8464 5.47382C19.8038 5.16309 19.5669 4.92616 19.2562 4.88361C18.5911 4.79252 17.9522 4.73001 17.5 4.73001ZM15.4724 2.9021C14.2725 3.06643 13.3364 4.00255 13.1721 5.20245C13.0778 5.89066 13 6.63817 13 7.23001C13 7.82185 13.0778 8.56937 13.1721 9.25758C13.3364 10.4575 14.2725 11.3936 15.4724 11.5579C16.1606 11.6522 16.9082 11.73 17.5 11.73C18.0918 11.73 18.8394 11.6522 19.5276 11.5579C20.7275 11.3936 21.6636 10.4575 21.8279 9.25758C21.9222 8.56937 22 7.82185 22 7.23001C22 6.63817 21.9222 5.89066 21.8279 5.20245C21.6636 4.00255 20.7275 3.06643 19.5276 2.9021C18.8394 2.80785 18.0918 2.73001 17.5 2.73001C16.9082 2.73001 16.1606 2.80785 15.4724 2.9021Z" fill="currentColor"/>
<path fill-rule="evenodd" clip-rule="evenodd" d="M6.5 4.73001C6.04782 4.73001 5.40893 4.79252 4.74381 4.88361C4.43308 4.92616 4.19615 5.16309 4.15359 5.47382C4.0625 6.13894 4 6.77783 4 7.23001C4 7.68219 4.0625 8.32109 4.15359 8.9862C4.19615 9.29693 4.43308 9.53386 4.74381 9.57642C5.40893 9.66751 6.04782 9.73001 6.5 9.73001C6.95218 9.73001 7.59107 9.66751 8.25619 9.57642C8.56692 9.53386 8.80385 9.29693 8.84641 8.9862C8.9375 8.32109 9 7.68219 9 7.23001C9 6.77783 8.9375 6.13894 8.84641 5.47382C8.80385 5.16309 8.56692 4.92616 8.25619 4.88361C7.59107 4.79252 6.95218 4.73001 6.5 4.73001ZM4.47244 2.9021C3.27253 3.06643 2.33642 4.00255 2.17209 5.20245C2.07784 5.89066 2 6.63817 2 7.23001C2 7.82185 2.07784 8.56937 2.17209 9.25758C2.33642 10.4575 3.27253 11.3936 4.47244 11.5579C5.16065 11.6522 5.90816 11.73 6.5 11.73C7.09184 11.73 7.83935 11.6522 8.52756 11.5579C9.72747 11.3936 10.6636 10.4575 10.8279 9.25758C10.9222 8.56937 11 7.82185 11 7.23001C11 6.63817 10.9222 5.89066 10.8279 5.20245C10.6636 4.00255 9.72747 3.06643 8.52756 2.9021C7.83935 2.80785 7.09184 2.73001 6.5 2.73001C5.90816 2.73001 5.16065 2.80785 4.47244 2.9021Z" fill="currentColor"/>
</svg>
