<svg width="24" height="25" viewBox="0 0 24 25" fill="none" xmlns="http://www.w3.org/2000/svg">
<g clip-path="url(#clip0_9_194)">
<path d="M21 18.7533C21 19.2413 20.6043 19.637 20.1163 19.637H3.88372C3.39565 19.637 3 19.2413 3 18.7533C3 18.2652 3.39566 17.8695 3.88372 17.8695H3.9V11.7109C3.9 7.30289 7.527 3.73001 12 3.73001C16.473 3.73001 20.1 7.30289 20.1 11.7109V17.8695H20.1163C20.6043 17.8695 21 18.2652 21 18.7533ZM5.7 17.8695H18.3V11.7109C18.3 8.27941 15.4794 5.49745 12 5.49745C8.5206 5.49745 5.7 8.27941 5.7 11.7109V17.8695ZM9.97604 21.4858C9.73121 20.9908 10.1977 20.5207 10.75 20.5207H13.25C13.8023 20.5207 14.2688 20.9908 14.024 21.4858C13.9155 21.7051 13.7699 21.9073 13.591 22.0829C13.169 22.4972 12.5967 22.73 12 22.73C11.4033 22.73 10.831 22.4972 10.409 22.0829C10.2301 21.9073 10.0845 21.7051 9.97604 21.4858Z" fill="currentColor"/>
</g>
<defs>
<clipPath id="clip0_9_194">
<rect width="24" height="24" fill="white" transform="translate(0 0.730011)"/>
</clipPath>
</defs>
</svg>
