<svg width="24" height="25" viewBox="0 0 24 25" fill="none" xmlns="http://www.w3.org/2000/svg">
<g clip-path="url(#clip0_14_194)">
<path d="M5 10.73C3.9 10.73 3 11.63 3 12.73C3 13.83 3.9 14.73 5 14.73C6.1 14.73 7 13.83 7 12.73C7 11.63 6.1 10.73 5 10.73ZM19 10.73C17.9 10.73 17 11.63 17 12.73C17 13.83 17.9 14.73 19 14.73C20.1 14.73 21 13.83 21 12.73C21 11.63 20.1 10.73 19 10.73ZM12 10.73C10.9 10.73 10 11.63 10 12.73C10 13.83 10.9 14.73 12 14.73C13.1 14.73 14 13.83 14 12.73C14 11.63 13.1 10.73 12 10.73Z" fill="currentColor"/>
</g>
<defs>
<clipPath id="clip0_14_194">
<rect width="24" height="24" fill="white" transform="translate(0 0.730011)"/>
</clipPath>
</defs>
</svg>
