<svg width="24" height="25" viewBox="0 0 24 25" fill="none" xmlns="http://www.w3.org/2000/svg">
<path fill-rule="evenodd" clip-rule="evenodd" d="M11.9999 18.73C16.1254 18.73 19.0591 16.1376 20.7772 13.9787C21.3731 13.2298 21.3731 12.2302 20.7772 11.4814C19.0591 9.3224 16.1254 6.73001 11.9999 6.73001C7.87444 6.73001 4.94074 9.3224 3.22268 11.4814C2.62678 12.2302 2.62678 13.2298 3.22268 13.9787C4.94074 16.1376 7.87444 18.73 11.9999 18.73ZM22.3422 15.224C23.5181 13.7463 23.5181 11.7138 22.3422 10.236C20.4739 7.88827 17.0265 4.73001 11.9999 4.73001C6.97341 4.73001 3.526 7.88827 1.65772 10.236C0.481768 11.7138 0.481768 13.7463 1.65772 15.224C3.526 17.5718 6.97341 20.73 11.9999 20.73C17.0265 20.73 20.4739 17.5718 22.3422 15.224Z" fill="#353945"/>
<path fill-rule="evenodd" clip-rule="evenodd" d="M14 12.73C14 13.8346 13.1046 14.73 12 14.73C10.8954 14.73 10 13.8346 10 12.73C10 12.7016 10.0006 12.6734 10.0018 12.6453C10.1577 12.7002 10.3253 12.73 10.5 12.73C11.3284 12.73 12 12.0584 12 11.23C12 11.0554 11.9701 10.8877 11.9153 10.7318C11.9434 10.7306 11.9716 10.73 12 10.73C13.1046 10.73 14 11.6254 14 12.73ZM16 12.73C16 14.9391 14.2091 16.73 12 16.73C9.79086 16.73 8 14.9391 8 12.73C8 10.5209 9.79086 8.73001 12 8.73001C14.2091 8.73001 16 10.5209 16 12.73Z" fill="#353945"/>
</svg>
