<svg width="24" height="25" viewBox="0 0 24 25" fill="none" xmlns="http://www.w3.org/2000/svg">
<path fill-rule="evenodd" clip-rule="evenodd" d="M11.8676 8.73001L10.6954 6.77632C10.398 6.28056 9.94858 5.99706 9.49937 5.9398C8.63403 5.82949 7.55518 5.73001 6.5 5.73001C5.76672 5.73001 5.0186 5.77812 4.33466 5.84544C3.70504 5.90742 3.24029 6.37513 3.19011 7.02925C3.08968 8.33862 3 10.2127 3 12.73C3 14.5026 3.06456 16.0816 3.14656 17.3716C3.22311 18.5758 4.13628 19.4848 5.34979 19.5547C6.99648 19.6497 9.2132 19.73 12 19.73C14.7868 19.73 17.0035 19.6497 18.6502 19.5547C19.8637 19.4848 20.7769 18.5758 20.8534 17.3716C20.9354 16.0816 21 14.5026 21 12.73C21 11.7639 20.944 10.8467 20.8699 10.0579C20.8087 9.40692 20.3231 8.92127 19.6721 8.86011C18.8833 8.786 17.9661 8.73001 17 8.73001H11.8676ZM13 6.73001L12.4104 5.74733C11.8306 4.78095 10.8702 4.09836 9.75227 3.95586C8.83875 3.83941 7.66937 3.73001 6.5 3.73001C5.68392 3.73001 4.86784 3.78329 4.13873 3.85506C2.53169 4.01326 1.31947 5.26622 1.19597 6.87629C1.09136 8.2401 1 10.1653 1 12.73C1 14.5506 1.06629 16.1722 1.15059 17.4985C1.29156 19.7163 3.01613 21.4235 5.23467 21.5514C6.91963 21.6486 9.17474 21.73 12 21.73C14.8253 21.73 17.0804 21.6486 18.7653 21.5514C20.9839 21.4235 22.7084 19.7163 22.8494 17.4985C22.9337 16.1722 23 14.5506 23 12.73C23 11.6889 22.9398 10.708 22.8611 9.87086C22.7101 8.26314 21.4669 7.01991 19.8591 6.86887C19.0221 6.79023 18.0411 6.73001 17 6.73001H13Z" fill="#353945"/>
</svg>
