<svg width="24" height="25" viewBox="0 0 24 25" fill="none" xmlns="http://www.w3.org/2000/svg">
<path fill-rule="evenodd" clip-rule="evenodd" d="M12 4.73001C10.0478 4.73001 8.24816 4.89102 6.80371 5.08179C5.50372 5.25348 4.52346 6.23373 4.35177 7.53372C4.16101 8.97817 4 10.7778 4 12.73C4 14.6822 4.161 16.4818 4.35177 17.9263C4.52346 19.2263 5.50372 20.2065 6.80371 20.3782C8.24816 20.569 10.0478 20.73 12 20.73C13.9522 20.73 15.7518 20.569 17.1963 20.3782C18.4963 20.2065 19.4765 19.2263 19.6482 17.9263C19.839 16.4818 20 14.6822 20 12.73C20 10.7778 19.839 8.97817 19.6482 7.53372C19.4765 6.23373 18.4963 5.25348 17.1963 5.08179C15.7518 4.89102 13.9522 4.73001 12 4.73001ZM6.54184 3.099C4.34504 3.38914 2.65912 5.07505 2.36899 7.27185C2.16953 8.78209 2 10.6713 2 12.73C2 14.7887 2.16953 16.6779 2.36899 18.1882C2.65912 20.385 4.34504 22.0709 6.54184 22.361C8.05208 22.5605 9.94127 22.73 12 22.73C14.0587 22.73 15.9479 22.5605 17.4582 22.361C19.655 22.0709 21.3409 20.385 21.631 18.1882C21.8305 16.6779 22 14.7887 22 12.73C22 10.6713 21.8305 8.78209 21.631 7.27185C21.3409 5.07505 19.655 3.38914 17.4582 3.099C15.9479 2.89955 14.0587 2.73001 12 2.73001C9.94127 2.73001 8.05208 2.89955 6.54184 3.099Z" fill="#353945"/>
<path d="M9 11.73C10.1046 11.73 11 10.8346 11 9.73001C11 8.62544 10.1046 7.73001 9 7.73001C7.89543 7.73001 7 8.62544 7 9.73001C7 10.8346 7.89543 11.73 9 11.73Z" fill="#353945"/>
<path d="M18.1213 13.4373L19.9156 15.2316C19.8537 16.1678 19.7633 17.0365 19.6637 17.8081L16.7071 14.8515C16.3166 14.461 15.6834 14.461 15.2929 14.8515L13.1213 17.0231C11.9497 18.1947 10.0502 18.1947 8.87867 17.0231L8.7071 16.8515C8.31658 16.461 7.68341 16.461 7.29289 16.8515L4.88382 19.2606C4.60475 18.8822 4.41802 18.4281 4.35176 17.9263C4.31562 17.6527 4.28055 17.3663 4.24744 17.0685L5.87868 15.4373C7.05025 14.2657 8.94974 14.2657 10.1213 15.4373L10.2929 15.6089C10.6834 15.9994 11.3166 15.9994 11.7071 15.6089L13.8787 13.4373C15.0503 12.2657 16.9497 12.2657 18.1213 13.4373Z" fill="#353945"/>
</svg>
