<svg width="24" height="25" viewBox="0 0 24 25" fill="none" xmlns="http://www.w3.org/2000/svg">
<path d="M2.58005 19.74L2.56005 19.76C2.29005 19.17 2.12005 18.5 2.05005 17.76C2.12005 18.49 2.31005 19.15 2.58005 19.74Z" fill="currentColor"/>
<path d="M9 11.11C10.3144 11.11 11.38 10.0444 11.38 8.73001C11.38 7.41557 10.3144 6.35001 9 6.35001C7.68556 6.35001 6.62 7.41557 6.62 8.73001C6.62 10.0444 7.68556 11.11 9 11.11Z" fill="currentColor"/>
<path d="M16.19 2.73001H7.81C4.17 2.73001 2 4.90001 2 8.54001V16.92C2 18.01 2.19 18.96 2.56 19.76C3.42 21.66 5.26 22.73 7.81 22.73H16.19C19.83 22.73 22 20.56 22 16.92V14.63V8.54001C22 4.90001 19.83 2.73001 16.19 2.73001ZM20.37 13.23C19.59 12.56 18.33 12.56 17.55 13.23L13.39 16.8C12.61 17.47 11.35 17.47 10.57 16.8L10.23 16.52C9.52 15.9 8.39 15.84 7.59 16.38L3.85 18.89C3.63 18.33 3.5 17.68 3.5 16.92V8.54001C3.5 5.72001 4.99 4.23001 7.81 4.23001H16.19C19.01 4.23001 20.5 5.72001 20.5 8.54001V13.34L20.37 13.23Z" fill="currentColor"/>
</svg>
