<svg width="24" height="25" viewBox="0 0 24 25" fill="none" xmlns="http://www.w3.org/2000/svg">
<path fill-rule="evenodd" clip-rule="evenodd" d="M2 16.73C1.44772 16.73 1 17.1777 1 17.73C1 18.2823 1.44772 18.73 2 18.73H13C13.5523 18.73 14 18.2823 14 17.73C14 17.1777 13.5523 16.73 13 16.73H2ZM19 16.73C18.4477 16.73 18 17.1777 18 17.73C18 18.2823 18.4477 18.73 19 18.73H22C22.5523 18.73 23 18.2823 23 17.73C23 17.1777 22.5523 16.73 22 16.73H19Z" fill="currentColor"/>
<path fill-rule="evenodd" clip-rule="evenodd" d="M16 19.73C17.1046 19.73 18 18.8346 18 17.73C18 16.6254 17.1046 15.73 16 15.73C14.8954 15.73 14 16.6254 14 17.73C14 18.8346 14.8954 19.73 16 19.73ZM16 21.73C18.2091 21.73 20 19.9391 20 17.73C20 15.5209 18.2091 13.73 16 13.73C13.7909 13.73 12 15.5209 12 17.73C12 19.9391 13.7909 21.73 16 21.73Z" fill="currentColor"/>
<path fill-rule="evenodd" clip-rule="evenodd" d="M2 6.73001C1.44772 6.73001 1 7.17773 1 7.73001C1 8.2823 1.44772 8.73001 2 8.73001H5C5.55228 8.73001 6 8.2823 6 7.73001C6 7.17773 5.55228 6.73001 5 6.73001H2ZM11 6.73001C10.4477 6.73001 10 7.17773 10 7.73001C10 8.2823 10.4477 8.73001 11 8.73001H22C22.5523 8.73001 23 8.2823 23 7.73001C23 7.17773 22.5523 6.73001 22 6.73001H11Z" fill="currentColor"/>
<path fill-rule="evenodd" clip-rule="evenodd" d="M8 9.73001C9.10457 9.73001 10 8.83458 10 7.73001C10 6.62544 9.10457 5.73001 8 5.73001C6.89543 5.73001 6 6.62544 6 7.73001C6 8.83458 6.89543 9.73001 8 9.73001ZM8 11.73C10.2091 11.73 12 9.93915 12 7.73001C12 5.52087 10.2091 3.73001 8 3.73001C5.79086 3.73001 4 5.52087 4 7.73001C4 9.93915 5.79086 11.73 8 11.73Z" fill="currentColor"/>
</svg>
