<svg width="24" height="25" viewBox="0 0 24 25" fill="none" xmlns="http://www.w3.org/2000/svg">
<path fill-rule="evenodd" clip-rule="evenodd" d="M2 5.73001C2 4.07316 3.34315 2.73001 5 2.73001H15C16.6569 2.73001 18 4.07316 18 5.73001V6.73001H19C20.6569 6.73001 22 8.07316 22 9.73001V19.73C22 21.3869 20.6569 22.73 19 22.73H9C7.34315 22.73 6 21.3869 6 19.73V18.73H5C3.34315 18.73 2 17.3869 2 15.73V5.73001ZM8 19.73C8 20.2823 8.44772 20.73 9 20.73H19C19.5523 20.73 20 20.2823 20 19.73V9.73001C20 9.17773 19.5523 8.73001 19 8.73001H9C8.44772 8.73001 8 9.17773 8 9.73001V19.73ZM16 6.73001H9C7.34315 6.73001 6 8.07316 6 9.73001V16.73H5C4.44772 16.73 4 16.2823 4 15.73V5.73001C4 5.17773 4.44772 4.73001 5 4.73001H15C15.5523 4.73001 16 5.17773 16 5.73001V6.73001Z" fill="#353945"/>
</svg>
