<svg width="98" height="24" viewBox="0 0 98 24" fill="none" xmlns="http://www.w3.org/2000/svg">
<g clip-path="url(#clip0_6_141)">
<path d="M23.4058 14.2311L23.0476 13.9899L21.2563 15.0151L22.5102 15.7387C22.749 15.8593 22.8087 16.1005 22.8087 16.2211C22.8087 16.3417 22.8087 16.5829 22.5102 16.7035L14.0913 21.5879C12.9568 22.2512 11.5835 22.2512 10.5087 21.5879L2.08981 16.7638C1.79126 16.6432 1.79126 16.402 1.79126 16.2814C1.79126 16.1608 1.79126 15.9196 2.08981 15.799L3.34369 15.0754L1.55243 14.0502L1.19417 14.2311C0.47767 14.6532 0 15.4372 0 16.2814C0 17.1256 0.417961 17.9095 1.19417 18.3316L9.61311 23.2161C10.449 23.6985 11.4044 23.9397 12.3 23.9397C13.2553 23.9397 14.151 23.6985 14.9869 23.2161L23.4058 18.3316C24.1223 17.9095 24.6 17.1256 24.6 16.2814C24.6 15.4372 24.1223 14.6532 23.4058 14.2311Z" fill="#777E91"/>
<path d="M23.4058 9.04521L22.0325 8.26129C21.8534 8.44219 21.6146 8.6231 21.3757 8.804L20.3607 9.40702L22.5102 10.6734C22.749 10.794 22.8087 11.0352 22.8087 11.1558C22.8087 11.2764 22.8087 11.5176 22.5102 11.6382L14.0913 16.5226C12.9568 17.1859 11.5835 17.1859 10.5087 16.5226L2.08981 11.5779C1.79126 11.397 1.79126 11.1558 1.79126 11.0955C1.79126 11.0352 1.79126 10.7337 2.08981 10.613L4.23932 9.34672L3.22427 8.7437C2.98544 8.6231 2.7466 8.44219 2.56748 8.20099L1.19417 9.04521C0.47767 9.46732 0 10.2512 0 11.0955C0 11.9397 0.417961 12.7236 1.19417 13.1457L9.61311 18.0301C10.449 18.5125 11.4044 18.7538 12.3 18.7538C13.2553 18.7538 14.151 18.5125 14.9869 18.0301L23.4058 13.1457C24.1223 12.7236 24.6 11.9397 24.6 11.0955C24.6 10.2512 24.1223 9.46732 23.4058 9.04521Z" fill="#353945"/>
<path d="M12.3 12C11.5835 12 10.8073 11.8191 10.1505 11.397L3.82138 7.71856C3.2243 7.35675 2.80634 6.69344 2.80634 5.96982C2.80634 5.2462 3.16459 4.58288 3.82138 4.22108L10.1505 0.602985C11.4641 -0.180935 13.1359 -0.180935 14.4495 0.602985L20.7787 4.28138C21.3757 4.64319 21.7937 5.3065 21.7937 6.03012C21.7937 6.75374 21.4355 7.41706 20.7787 7.77886L14.4495 11.4573C13.7927 11.7588 13.0165 12 12.3 12Z" fill="#3772FF"/>
</g>
<path d="M38.18 11.704C38.652 11.792 39.04 12.028 39.344 12.412C39.648 12.796 39.8 13.236 39.8 13.732C39.8 14.18 39.688 14.576 39.464 14.92C39.248 15.256 38.932 15.52 38.516 15.712C38.1 15.904 37.608 16 37.04 16H33.428V7.624H36.884C37.452 7.624 37.94 7.716 38.348 7.9C38.764 8.084 39.076 8.34 39.284 8.668C39.5 8.996 39.608 9.368 39.608 9.784C39.608 10.272 39.476 10.68 39.212 11.008C38.956 11.336 38.612 11.568 38.18 11.704ZM35.108 11.08H36.644C37.044 11.08 37.352 10.992 37.568 10.816C37.784 10.632 37.892 10.372 37.892 10.036C37.892 9.7 37.784 9.44 37.568 9.256C37.352 9.072 37.044 8.98 36.644 8.98H35.108V11.08ZM36.8 14.632C37.208 14.632 37.524 14.536 37.748 14.344C37.98 14.152 38.096 13.88 38.096 13.528C38.096 13.168 37.976 12.888 37.736 12.688C37.496 12.48 37.172 12.376 36.764 12.376H35.108V14.632H36.8ZM44.0909 16.108C43.4509 16.108 42.8749 15.968 42.3629 15.688C41.8509 15.4 41.4469 14.996 41.1509 14.476C40.8629 13.956 40.7189 13.356 40.7189 12.676C40.7189 11.996 40.8669 11.396 41.1629 10.876C41.4669 10.356 41.8789 9.956 42.3989 9.676C42.9189 9.388 43.4989 9.244 44.1389 9.244C44.7789 9.244 45.3589 9.388 45.8789 9.676C46.3989 9.956 46.8069 10.356 47.1029 10.876C47.4069 11.396 47.5589 11.996 47.5589 12.676C47.5589 13.356 47.4029 13.956 47.0909 14.476C46.7869 14.996 46.3709 15.4 45.8429 15.688C45.3229 15.968 44.7389 16.108 44.0909 16.108ZM44.0909 14.644C44.3949 14.644 44.6789 14.572 44.9429 14.428C45.2149 14.276 45.4309 14.052 45.5909 13.756C45.7509 13.46 45.8309 13.1 45.8309 12.676C45.8309 12.044 45.6629 11.56 45.3269 11.224C44.9989 10.88 44.5949 10.708 44.1149 10.708C43.6349 10.708 43.2309 10.88 42.9029 11.224C42.5829 11.56 42.4229 12.044 42.4229 12.676C42.4229 13.308 42.5789 13.796 42.8909 14.14C43.2109 14.476 43.6109 14.644 44.0909 14.644ZM48.3593 12.652C48.3593 11.98 48.4913 11.384 48.7553 10.864C49.0273 10.344 49.3913 9.944 49.8473 9.664C50.3113 9.384 50.8273 9.244 51.3953 9.244C51.8913 9.244 52.3233 9.344 52.6913 9.544C53.0673 9.744 53.3673 9.996 53.5913 10.3V9.352H55.2833V16H53.5913V15.028C53.3753 15.34 53.0753 15.6 52.6913 15.808C52.3153 16.008 51.8793 16.108 51.3833 16.108C50.8233 16.108 50.3113 15.964 49.8473 15.676C49.3913 15.388 49.0273 14.984 48.7553 14.464C48.4913 13.936 48.3593 13.332 48.3593 12.652ZM53.5913 12.676C53.5913 12.268 53.5113 11.92 53.3513 11.632C53.1913 11.336 52.9753 11.112 52.7033 10.96C52.4313 10.8 52.1393 10.72 51.8273 10.72C51.5153 10.72 51.2273 10.796 50.9633 10.948C50.6993 11.1 50.4833 11.324 50.3153 11.62C50.1553 11.908 50.0753 12.252 50.0753 12.652C50.0753 13.052 50.1553 13.404 50.3153 13.708C50.4833 14.004 50.6993 14.232 50.9633 14.392C51.2353 14.552 51.5233 14.632 51.8273 14.632C52.1393 14.632 52.4313 14.556 52.7033 14.404C52.9753 14.244 53.1913 14.02 53.3513 13.732C53.5113 13.436 53.5913 13.084 53.5913 12.676ZM58.6041 10.384C58.8201 10.032 59.1001 9.756 59.4441 9.556C59.7961 9.356 60.1961 9.256 60.6441 9.256V11.02H60.2001C59.6721 11.02 59.2721 11.144 59.0001 11.392C58.7361 11.64 58.6041 12.072 58.6041 12.688V16H56.9241V9.352H58.6041V10.384ZM61.3436 12.652C61.3436 11.98 61.4756 11.384 61.7396 10.864C62.0116 10.344 62.3796 9.944 62.8436 9.664C63.3076 9.384 63.8236 9.244 64.3916 9.244C64.8236 9.244 65.2356 9.34 65.6276 9.532C66.0196 9.716 66.3316 9.964 66.5636 10.276V7.12H68.2676V16H66.5636V15.016C66.3556 15.344 66.0636 15.608 65.6876 15.808C65.3116 16.008 64.8756 16.108 64.3796 16.108C63.8196 16.108 63.3076 15.964 62.8436 15.676C62.3796 15.388 62.0116 14.984 61.7396 14.464C61.4756 13.936 61.3436 13.332 61.3436 12.652ZM66.5756 12.676C66.5756 12.268 66.4956 11.92 66.3356 11.632C66.1756 11.336 65.9596 11.112 65.6876 10.96C65.4156 10.8 65.1236 10.72 64.8116 10.72C64.4996 10.72 64.2116 10.796 63.9476 10.948C63.6836 11.1 63.4676 11.324 63.2996 11.62C63.1396 11.908 63.0596 12.252 63.0596 12.652C63.0596 13.052 63.1396 13.404 63.2996 13.708C63.4676 14.004 63.6836 14.232 63.9476 14.392C64.2196 14.552 64.5076 14.632 64.8116 14.632C65.1236 14.632 65.4156 14.556 65.6876 14.404C65.9596 14.244 66.1756 14.02 66.3356 13.732C66.4956 13.436 66.5756 13.084 66.5756 12.676Z" fill="#353945"/>
<path d="M77.9038 14.404H74.5678L74.0158 16H72.2518L75.2638 7.612H77.2198L80.2318 16H78.4558L77.9038 14.404ZM77.4478 13.06L76.2358 9.556L75.0238 13.06H77.4478ZM83.0377 10.312C83.2537 10.008 83.5497 9.756 83.9257 9.556C84.3097 9.348 84.7457 9.244 85.2337 9.244C85.8017 9.244 86.3137 9.384 86.7697 9.664C87.2337 9.944 87.5977 10.344 87.8617 10.864C88.1337 11.376 88.2697 11.972 88.2697 12.652C88.2697 13.332 88.1337 13.936 87.8617 14.464C87.5977 14.984 87.2337 15.388 86.7697 15.676C86.3137 15.964 85.8017 16.108 85.2337 16.108C84.7457 16.108 84.3137 16.008 83.9377 15.808C83.5697 15.608 83.2697 15.356 83.0377 15.052V19.168H81.3577V9.352H83.0377V10.312ZM86.5537 12.652C86.5537 12.252 86.4697 11.908 86.3017 11.62C86.1417 11.324 85.9257 11.1 85.6537 10.948C85.3897 10.796 85.1017 10.72 84.7897 10.72C84.4857 10.72 84.1977 10.8 83.9257 10.96C83.6617 11.112 83.4457 11.336 83.2777 11.632C83.1177 11.928 83.0377 12.276 83.0377 12.676C83.0377 13.076 83.1177 13.424 83.2777 13.72C83.4457 14.016 83.6617 14.244 83.9257 14.404C84.1977 14.556 84.4857 14.632 84.7897 14.632C85.1017 14.632 85.3897 14.552 85.6537 14.392C85.9257 14.232 86.1417 14.004 86.3017 13.708C86.4697 13.412 86.5537 13.06 86.5537 12.652ZM91.1705 10.312C91.3865 10.008 91.6825 9.756 92.0585 9.556C92.4425 9.348 92.8785 9.244 93.3665 9.244C93.9345 9.244 94.4465 9.384 94.9025 9.664C95.3665 9.944 95.7305 10.344 95.9945 10.864C96.2665 11.376 96.4025 11.972 96.4025 12.652C96.4025 13.332 96.2665 13.936 95.9945 14.464C95.7305 14.984 95.3665 15.388 94.9025 15.676C94.4465 15.964 93.9345 16.108 93.3665 16.108C92.8785 16.108 92.4465 16.008 92.0705 15.808C91.7025 15.608 91.4025 15.356 91.1705 15.052V19.168H89.4905V9.352H91.1705V10.312ZM94.6865 12.652C94.6865 12.252 94.6025 11.908 94.4345 11.62C94.2745 11.324 94.0585 11.1 93.7865 10.948C93.5225 10.796 93.2345 10.72 92.9225 10.72C92.6185 10.72 92.3305 10.8 92.0585 10.96C91.7945 11.112 91.5785 11.336 91.4105 11.632C91.2505 11.928 91.1705 12.276 91.1705 12.676C91.1705 13.076 91.2505 13.424 91.4105 13.72C91.5785 14.016 91.7945 14.244 92.0585 14.404C92.3305 14.556 92.6185 14.632 92.9225 14.632C93.2345 14.632 93.5225 14.552 93.7865 14.392C94.0585 14.232 94.2745 14.004 94.4345 13.708C94.6025 13.412 94.6865 13.06 94.6865 12.652Z" fill="#3772FF"/>
<defs>
<clipPath id="clip0_6_141">
<rect width="24.6" height="24" fill="white"/>
</clipPath>
</defs>
</svg>
